<svg xmlns="http://www.w3.org/2000/svg" xmlns:xlink="http://www.w3.org/1999/xlink" width="178" height="34" viewBox="0 0 178 34">
    <defs>
        <path id="a" d="M36.196 13.451H17.165v7.939h6.106c-.116.299-.265.58-.43.852a8.388 8.388 0 0 1-1.838 1.675c-1.238.84-2.423 1.398-3.625 1.615-.324.036-.654.06-.994.06-2.565 0-4.543-.798-6.043-2.436-1.43-1.568-2.154-3.683-2.154-6.285 0-2.575.739-4.69 2.196-6.286.677-.743 1.531-1.34 2.537-1.772 1.024-.44 2.33-.663 3.884-.663 1.453 0 2.75.322 3.856.956a6.705 6.705 0 0 1 1.677 1.356l.625.703h9.251l-1.758-3.142c-1.226-2.193-2.942-4.017-5.12-5.431A16.786 16.786 0 0 0 21.138.699C19.594.235 17.782 0 15.753 0c-2.137 0-4.232.45-6.228 1.337C7.53 2.224 5.805 3.46 4.41 5 1.483 8.176 0 12.171 0 16.871c0 4.749 1.437 8.739 4.27 11.857 1.41 1.552 3.135 2.79 5.129 3.676a15.258 15.258 0 0 0 4.723 1.267v.003c1.488.177 3.342.094 4.881-.183l.047-.01c.435-.072.845-.158 1.223-.261.027-.008.058-.023.089-.037a14.593 14.593 0 0 0 4.427-2.003c1.443-.978 2.591-1.932 3.441-2.858v5.055h1.103l.002.026h2.299v-.026h4.562V13.451z"/>
        <linearGradient id="b" x1="81.238%" x2="4.869%" y1="37.174%" y2="109.757%">
            <stop offset="0%" stop-color="#A084FF"/>
            <stop offset="100%" stop-color="#77D0FF"/>
        </linearGradient>
        <linearGradient id="d" x1="-45.253%" x2="65.501%" y1="50%" y2="50%">
            <stop offset="0%" stop-color="#A084FF"/>
            <stop offset="100%" stop-color="#77D0FF"/>
        </linearGradient>
    </defs>
    <g fill="none" fill-rule="evenodd">
        <path fill="#1F0C32" d="M77.416 10.334l-4.82 1.507c-.387-1.421-1.291-2.885-2.754-4.22s-3.787-2.239-6.412-2.239c-2.023 0-3.83.474-5.509 1.464-1.635 1.034-2.926 2.411-3.873 4.177-.947 1.765-1.42 3.746-1.42 5.899-.13 6.33 4.562 11.625 10.759 11.54 2.625 0 4.776-.69 6.369-1.981 1.635-1.335 2.625-3.014 2.969-5.081H61.493v-4.478h16.568v1.722c0 3.961-1.463 7.535-3.873 10.119-2.453 2.626-6.283 4.22-10.758 4.22-3.099 0-5.853-.69-8.263-2.067-2.453-1.421-4.347-3.316-5.68-5.727-1.335-2.454-1.98-5.167-1.98-8.181 0-2.282.43-4.478 1.248-6.502.774-1.98 1.893-3.703 3.313-5.124C54.908 2.54 58.997.775 63.473.775c7.574 0 12.523 4.564 13.943 9.559zm9.05.904v11.97c0 3.23 1.55 5.34 4.691 5.34 1.506 0 2.711-.474 3.615-1.465.904-.99 1.334-2.325 1.334-3.918V11.238h4.777v21.4h-4.648v-2.885c-.645.861-1.377 1.55-2.237 2.067-.861.56-1.636.861-2.324 1.033-.646.172-1.334.215-1.98.215-3.443 0-5.982-1.679-7.144-4.262-.602-1.292-.86-2.756-.86-4.392V11.238h4.777zm19.939-4.736c-.602-.603-.947-1.335-.947-2.196 0-.904.345-1.636.947-2.24.602-.645 1.334-.946 2.195-.946.903 0 1.635.3 2.238.947.602.603.903 1.335.903 2.239a2.99 2.99 0 0 1-.903 2.196c-.603.603-1.335.947-2.238.947-.86 0-1.593-.344-2.195-.947zm-.172 26.136v-21.4h4.777v21.4h-4.777zm8.663-10.722c0-2.755 1.033-5.468 2.798-7.578 1.807-2.11 4.647-3.53 7.875-3.53 1.162 0 2.41.3 3.744.904 1.377.56 2.453 1.42 3.184 2.583V0h4.777v32.638h-4.69v-3.359c-.517.862-1.249 1.594-2.195 2.196-.99.56-1.894.948-2.711 1.163-.818.215-1.593.344-2.238.344-1.98 0-3.83-.56-5.423-1.593-1.635-1.033-2.883-2.411-3.787-4.09-.86-1.68-1.334-3.488-1.334-5.383zm17.644 0c0 1.895-.559 3.445-1.764 4.78-1.205 1.292-2.754 1.938-4.648 1.938-1.893 0-3.4-.646-4.604-1.938-1.205-1.335-1.808-2.885-1.808-4.78 0-1.894.603-3.487 1.808-4.822 1.205-1.292 2.71-1.938 4.604-1.938 1.894 0 3.443.646 4.648 1.938 1.205 1.335 1.764 2.928 1.764 4.822zm29.7-2.259l-15.287 5.564c1.17 2.965 4.922 4.211 7.819 3.11 1.662-.604 2.91-1.568 3.571-2.866l4.165.806a9.615 9.615 0 0 1-2.665 3.79c-1.092.9-2.257 1.6-3.632 2.1-5.738 2.226-12.314-.742-14.313-6.612-.693-1.902-.881-3.804-.606-5.69.3-1.943 1.017-3.624 2.255-5.129 1.198-1.49 2.76-2.608 4.66-3.3 3.074-1.118 5.799-1.056 8.245.253 2.43 1.269 4.233 3.454 5.367 6.57.177.485.313.985.42 1.404zm-12.593-4.398c-1.375.5-2.44 1.347-3.102 2.55-.676 1.162-.885 2.476-.586 3.925l10.554-3.842c-.581-1.346-1.505-2.247-2.784-2.744-1.306-.44-2.666-.404-4.082.111zm28.322-4.107v4.909a6.091 6.091 0 0 0-1.334-.13c-3.615 0-5.595 2.11-5.595 5.813v10.894h-4.776v-21.4h4.69v3.316a6.629 6.629 0 0 1 5.853-3.488c.43 0 .818.043 1.162.086z"/>
        <g transform="translate(0 .233)">
            <mask id="c" fill="#fff">
                <use xlink:href="#a"/>
            </mask>
            <use fill="#77D0FF" xlink:href="#a"/>
            <path fill="url(#b)" d="M36.29 33.452H28.1l.033-4.967c-5.845 8.256-17.288 6.98-23.868.369 10.354 4.162 16.888-2.152 19.03-7.462H17.04v-7.977h19.25v20.037z" mask="url(#c)"/>
            <path fill="url(#d)" d="M8.224 17.116c0-.12.002-.24.004-.359.067-3.137 1.213-4.543 2.408-5.98C11.83 9.34 14.076 8.2 15.979 8.2c1.714 0 6.01 2.098 6.847 3.144h9.572c-.916-3.917-3.348-6.437-6.31-8.487C23.094.745 19.943-.086 16.125-.086c-2.138 0-4.392.545-6.225 1.188-6.18 2.91-4.83 15.182-2.43 18.646a14.22 14.22 0 0 0 2.209 2.524c-.886-1.53-1.456-3.015-1.456-5.156z" mask="url(#c)"/>
        </g>
    </g>
</svg>
